<?xml version="1.0" encoding="UTF-8" standalone="no"?>
<!-- Created with Inkscape (http://www.inkscape.org/) -->

<svg
   xmlns:dc="http://purl.org/dc/elements/1.1/"
   xmlns:cc="http://creativecommons.org/ns#"
   xmlns:rdf="http://www.w3.org/1999/02/22-rdf-syntax-ns#"
   xmlns:svg="http://www.w3.org/2000/svg"
   xmlns="http://www.w3.org/2000/svg"
   xmlns:sodipodi="http://sodipodi.sourceforge.net/DTD/sodipodi-0.dtd"
   xmlns:inkscape="http://www.inkscape.org/namespaces/inkscape"
   width="310"
   height="310"
   viewBox="0 0 310 310"
   id="svg2"
   version="1.1"
   inkscape:version="0.91 r13725"
   sodipodi:docname="logo.svg">
  <defs
     id="defs4" />
  <sodipodi:namedview
     id="base"
     pagecolor="#ffffff"
     bordercolor="#666666"
     borderopacity="1.0"
     inkscape:pageopacity="0.0"
     inkscape:pageshadow="2"
     inkscape:zoom="1.4"
     inkscape:cx="53.95619"
     inkscape:cy="121.25752"
     inkscape:document-units="px"
     inkscape:current-layer="layer1"
     showgrid="false"
     units="px"
     width="310px"
     inkscape:window-width="1280"
     inkscape:window-height="962"
     inkscape:window-x="1432"
     inkscape:window-y="-8"
     inkscape:window-maximized="1" />
  <metadata
     id="metadata7">
    <rdf:RDF>
      <cc:Work
         rdf:about="">
        <dc:format>image/svg+xml</dc:format>
        <dc:type
           rdf:resource="http://purl.org/dc/dcmitype/StillImage" />
        <dc:title></dc:title>
      </cc:Work>
    </rdf:RDF>
  </metadata>
  <g
     inkscape:label="Layer 1"
     inkscape:groupmode="layer"
     id="layer1"
     transform="translate(0,-742.3622)">
    <g
       id="g4203"
       transform="matrix(0.14977573,0,0,0.14977573,44.854102,775.19018)">
      <title
         id="title4205">Layer 1</title>
      <path
         id="svg_2"
         stroke-miterlimit="10"
         d="M 730.94,1839.63 C 692.17401,1649.33 623.82397,1490.96 541.03699,1344.1899 479.63001,1235.3199 408.49301,1134.83 342.673,1029.25 320.70099,994.00702 301.73901,956.77399 280.62601,920.19702 238.41,847.06 204.18201,762.26202 206.357,652.26501 208.482,544.79199 239.565,458.58099 284.38699,388.09299 358.10599,272.15799 481.58801,177.104 647.271,152.12399 782.737,131.7 909.74597,166.20599 999.81403,218.87199 1073.41,261.91 1130.41,319.39899 1173.73,387.15201 c 45.22,70.716 76.36,154.25998 78.97,263.23196 1.34,55.83002 -7.8,107.53204 -20.68,150.41803 -13.03,43.409 -33.99,79.69501 -52.64,118.45398 -36.41,75.659 -82.05,144.98402 -127.86,214.34402 -136.43699,206.61 -264.49601,417.31 -320.58,706.03 z"
         inkscape:connector-curvature="0"
         style="clip-rule:evenodd;fill:#c92a2a;fill-rule:evenodd;stroke-width:37;stroke-miterlimit:10" />
      <circle
         id="svg_4"
         cx="729.54602"
         cy="651.047"
         r="183.33299"
         style="clip-rule:evenodd;fill:#ffffff;fill-rule:evenodd" />
    </g>
    <rect
       style="opacity:1;fill:#ffffff;fill-opacity:1;fill-rule:nonzero;stroke:none;stroke-width:1;stroke-linejoin:round;stroke-miterlimit:4;stroke-dasharray:none;stroke-opacity:1"
       id="rect4288"
       width="137.90047"
       height="17.32233"
       x="88.571419"
       y="807.36218" />
    <rect
       style="opacity:1;fill:#ffffff;fill-opacity:1;fill-rule:nonzero;stroke:none;stroke-width:1;stroke-linejoin:round;stroke-miterlimit:4;stroke-dasharray:none;stroke-opacity:1"
       id="rect4288-3"
       width="129.31416"
       height="17.32233"
       x="90.906403"
       y="822.98267" />
    <g
       id="g4179"
       transform="matrix(0.55755795,0,0,0.55755795,67.089616,718.48231)">
      <g
         id="g4137">
        <g
           id="g4139">
          <path
             id="path4141"
             d="m 32.38,191.358 22.489,0 0,-21.412 21.409,0 0,21.412 21.412,0 0,-21.412 21.412,0 0,21.412 21.412,0 0,-21.412 18.787,0 2.619,0 0,0.177 0,21.235 -2.619,0 -18.792,0 0,21.411 -21.412,0 0,-21.411 -21.413,0 0,21.411 -21.412,0 0,-21.411 -21.409,0 0,21.411 -12.217,0 0,9.854 c 15.907,55.83 116.653,49.026 116.653,49.026 0,0 100.748,6.799 116.654,-49.026 l 0,-22.898 c 0,0 4.257,-3.459 10.025,-8.187 l -17.016,0 0,21.412 -21.411,0 0,-21.412 -21.411,0 0,21.412 -21.412,0 0,-21.412 -21.411,0 0,21.23 -21.409,0 0,-21.23 21.409,0 0,-0.181 0,-21.23 21.411,0 0,21.411 21.412,0 0,-21.411 21.411,0 0,21.411 21.411,0 0,-21.411 21.412,0 0,17.797 c 10.609,-8.725 23.726,-19.636 27.024,-22.913 5.753,-5.727 -12.257,-12.174 -17.575,-36.151 -5.317,-23.977 -3.898,-32.565 -25.01,-34.714 C 253.697,92 219.381,90.568 192.186,66.588 164.991,42.613 159.297,46.906 159.297,46.906 c 0,0 -5.753,-4.292 -32.949,19.682 C 99.154,90.568 64.767,92 43.653,94.146 22.539,96.295 23.981,104.883 18.663,128.86 13.345,152.837 -4.631,159.284 1.122,165.011 4.871,168.74 21.34,182.327 32.38,191.358 Z"
             inkscape:connector-curvature="0" />
        </g>
      </g>
      <g
         id="g4143" />
      <g
         id="g4145" />
      <g
         id="g4147" />
      <g
         id="g4149" />
      <g
         id="g4151" />
      <g
         id="g4153" />
      <g
         id="g4155" />
      <g
         id="g4157" />
      <g
         id="g4159" />
      <g
         id="g4161" />
      <g
         id="g4163" />
      <g
         id="g4165" />
      <g
         id="g4167" />
      <g
         id="g4169" />
      <g
         id="g4171" />
    </g>
  </g>
</svg>
